<svg aria-hidden="true" style="position:absolute;width:0;height:0;overflow:hidden" xmlns="http://www.w3.org/2000/svg">
  <defs>
      <symbol id="icon-instagram" viewBox="0 0 32 32">
          <path d="M9.953 1.421c1.564-0.072 2.063-0.088 6.047-0.088s4.483 0.017 6.045 0.088c1.563 0.071 2.629 0.32 3.563 0.681 0.977 0.369 1.864 0.947 2.597 1.693 0.747 0.732 1.323 1.617 1.691 2.596 0.363 0.933 0.611 2 0.683 3.56 0.072 1.567 0.088 2.065 0.088 6.048 0 3.984-0.017 4.483-0.088 6.047-0.071 1.56-0.32 2.627-0.683 3.56-0.389 1.017-0.964 1.884-1.69 2.598l-0.001 0.001c-0.733 0.747-1.62 1.323-2.597 1.691-0.933 0.363-2 0.611-3.56 0.683-1.565 0.072-2.064 0.088-6.048 0.088s-4.483-0.017-6.047-0.088c-1.56-0.071-2.627-0.32-3.56-0.683-1.017-0.389-1.884-0.964-2.598-1.69l-0.001-0.001c-0.727-0.714-1.303-1.581-1.675-2.548l-0.017-0.049c-0.361-0.933-0.609-2-0.681-3.56-0.072-1.567-0.088-2.065-0.088-6.048 0-3.984 0.017-4.483 0.088-6.045s0.32-2.629 0.681-3.563c0.39-1.016 0.966-1.883 1.692-2.596l0.001-0.001c0.714-0.727 1.58-1.303 2.547-1.675l0.049-0.017c0.933-0.361 2-0.609 3.56-0.681h0.001zM21.927 4.061c-1.547-0.071-2.011-0.085-5.927-0.085s-4.38 0.015-5.927 0.085c-1.431 0.065-2.207 0.304-2.724 0.505-0.684 0.267-1.173 0.583-1.687 1.096-0.475 0.462-0.848 1.025-1.086 1.655l-0.010 0.031c-0.201 0.517-0.44 1.293-0.505 2.724-0.071 1.547-0.085 2.011-0.085 5.927s0.015 4.38 0.085 5.927c0.065 1.431 0.304 2.207 0.505 2.724 0.235 0.636 0.609 1.213 1.096 1.687 0.473 0.487 1.051 0.861 1.687 1.096 0.517 0.201 1.293 0.44 2.724 0.505 1.547 0.071 2.009 0.085 5.927 0.085s4.38-0.015 5.927-0.085c1.431-0.065 2.207-0.304 2.724-0.505 0.684-0.267 1.173-0.583 1.687-1.096 0.487-0.473 0.861-1.051 1.096-1.687 0.201-0.517 0.44-1.293 0.505-2.724 0.071-1.547 0.085-2.011 0.085-5.927s-0.015-4.38-0.085-5.927c-0.065-1.431-0.304-2.207-0.505-2.724-0.267-0.684-0.583-1.173-1.096-1.687-0.462-0.474-1.025-0.848-1.655-1.086l-0.031-0.010c-0.517-0.201-1.293-0.44-2.724-0.505zM14.127 20.521c0.554 0.236 1.198 0.373 1.874 0.373 2.703 0 4.893-2.191 4.893-4.893 0-2.112-1.338-3.911-3.212-4.597l-0.034-0.011c-0.49-0.181-1.057-0.286-1.648-0.286-2.703 0-4.893 2.191-4.893 4.893 0 2.026 1.232 3.765 2.988 4.508l0.032 0.012zM10.669 10.669c1.364-1.364 3.249-2.208 5.331-2.208 4.163 0 7.539 3.375 7.539 7.539 0 2.082-0.844 3.966-2.208 5.331v0c-1.364 1.364-3.249 2.208-5.331 2.208-4.163 0-7.539-3.375-7.539-7.539 0-2.082 0.844-3.966 2.208-5.331v0zM25.211 9.584c0.345-0.326 0.559-0.786 0.559-1.296 0-0.984-0.798-1.782-1.782-1.782-0.474 0-0.904 0.185-1.224 0.487l0.001-0.001c-0.345 0.326-0.559 0.786-0.559 1.296 0 0.984 0.798 1.782 1.782 1.782 0.474 0 0.904-0.185 1.224-0.487l-0.001 0.001z"></path>
      </symbol>
      <symbol id="icon-menu" viewBox="0 0 48 32">
          <path d="M0 5.334v-5.334h48v5.334h-48zM0 18.666h48v-5.332h-48v5.332zM0 32h48v-5.334h-48v5.334z"></path>
      </symbol>
      <symbol id="close-blank" viewBox="0 0 32 32">
          <path d="M32 3.223l-3.223-3.223-12.777 12.777-12.777-12.777-3.223 3.223 12.777 12.777-12.777 12.777 3.223 3.223 12.777-12.777 12.777 12.777 3.223-3.223-12.777-12.777 12.777-12.777z"></path>
      </symbol>
      <symbol id="icon-tel" viewBox="0 0 32 32">
          <path d="M27.419 20.853l-4.201-0.48c-0.116-0.014-0.25-0.023-0.385-0.023-0.909 0-1.732 0.369-2.328 0.964l-3.045 3.045c-4.718-2.435-8.467-6.185-10.835-10.764l-0.065-0.139 3.063-3.056c0.596-0.596 0.964-1.419 0.964-2.328 0-0.136-0.008-0.27-0.024-0.401l0.002 0.016-0.48-4.169c-0.199-1.655-1.595-2.926-3.287-2.926-0.001 0-0.003 0-0.004 0h-2.861c-1.87-0.005-3.424 1.55-3.31 3.417 0.878 14.126 12.176 25.408 26.286 26.286 1.867 0.114 3.424-1.44 3.424-3.31v-2.862c0-0.005 0-0.010 0-0.016 0-1.681-1.266-3.067-2.897-3.256l-0.015-0.001z"></path>
      </symbol>
      <symbol id="icon-username" viewBox="0 0 32 32">
          <path d="M16 16c4.418 0 8-3.582 8-8s-3.582-8-8-8v0c-4.418 0-8 3.582-8 8s3.582 8 8 8v0zM16 20c-5.339 0-16 2.68-16 8v2c0 1.099 0.901 2 2 2h28c1.099 0 2-0.901 2-2v-2c0-5.32-10.661-8-16-8z"></path>
      </symbol>
      <symbol id="icon-house" viewBox="0 0 32 32">
          <path d="M32 19l-6-6v-9h-4v5l-6-6-16 16v1h4v10h10v-6h4v6h10v-10h4z"></path>
      </symbol>
      <symbol id="icon-smartphone" viewBox="0 0 32 32">
          <path d="M23 0H9C7.346 0 6 1.346 6 3v26c0 1.654 1.346 3 3 3h14c1.654 0 3-1.346 3-3V3c0-1.654-1.346-3-3-3zM9 2h14a1 1 0 0 1 1 1v21H8V3a1 1 0 0 1 1-1zm14 28H9a1 1 0 0 1-1-1v-3h16v3a1 1 0 0 1-1 1z"/>
          <path d="M10.707 27.478c.391.365.391.956 0 1.321s-1.024.365-1.414 0c-.391-.365-.391-.956 0-1.321s1.024-.365 1.414 0z"/>
      </symbol>
      <symbol id="icon-down" viewBox="0 0 32 32">
          <path d="M28.226 24l1.774-1.576-14-14.424-14 14.424 1.774 1.576 12.226-12.596z"></path>
      </symbol>
      <symbol id="icon-envelop" viewBox="0 0 32 32">
          <path d="M29 4h-26c-1.65 0-3 1.35-3 3v20c0 1.65 1.35 3 3 3h26c1.65 0 3-1.35 3-3v-20c0-1.65-1.35-3-3-3zM12.461 17.199l-8.461 6.59v-15.676l8.461 9.086zM5.512 8h20.976l-10.488 7.875-10.488-7.875zM12.79 17.553l3.21 3.447 3.21-3.447 6.58 8.447h-19.579l6.58-8.447zM19.539 17.199l8.461-9.086v15.676l-8.461-6.59z"></path>
      </symbol>
      <symbol id="icon-location" viewBox="0 0 32 32">
          <path d="M16 0c-5.523 0-10 4.477-10 10 0 10 10 22 10 22s10-12 10-22c0-5.523-4.477-10-10-10zM16 16.125c-3.383 0-6.125-2.742-6.125-6.125s2.742-6.125 6.125-6.125 6.125 2.742 6.125 6.125-2.742 6.125-6.125 6.125zM12.125 10c0-2.14 1.735-3.875 3.875-3.875s3.875 1.735 3.875 3.875c0 2.14-1.735 3.875-3.875 3.875s-3.875-1.735-3.875-3.875z"></path>
      </symbol>
  </defs>
</svg>
